<svg width="214" height="61" viewBox="0 0 214 61" fill="none" xmlns="http://www.w3.org/2000/svg">
<rect width="214" height="61" fill="none"/>
<path d="M-31 -30H399V190H-31V-30Z" fill="none"/>
<path d="M15.208 33C14.536 33 13.92 32.8413 13.36 32.524C12.8187 32.188 12.38 31.7493 12.044 31.208C11.7267 30.648 11.568 30.032 11.568 29.36V16.48C11.568 15.808 11.7267 15.2013 12.044 14.66C12.38 14.1 12.8187 13.6613 13.36 13.344C13.92 13.008 14.536 12.84 15.208 12.84H28.06C28.732 12.84 29.348 13.008 29.908 13.344C30.468 13.6613 30.9067 14.1 31.224 14.66C31.56 15.2013 31.728 15.808 31.728 16.48V17.684H28.676V16.564C28.676 16.3773 28.6107 16.2187 28.48 16.088C28.3493 15.9387 28.1907 15.864 28.004 15.864H15.292C15.1053 15.864 14.9373 15.9387 14.788 16.088C14.6573 16.2187 14.592 16.3773 14.592 16.564V29.276C14.592 29.4627 14.6573 29.6307 14.788 29.78C14.9373 29.9107 15.1053 29.976 15.292 29.976H28.004C28.1907 29.976 28.3493 29.9107 28.48 29.78C28.6107 29.6307 28.676 29.4627 28.676 29.276V24.992H23.916V21.94H31.728V29.36C31.728 30.032 31.56 30.648 31.224 31.208C30.9067 31.7493 30.468 32.188 29.908 32.524C29.348 32.8413 28.732 33 28.06 33H15.208ZM38.3382 33C37.6662 33 37.0502 32.832 36.4902 32.496C35.9489 32.16 35.5102 31.7213 35.1742 31.18C34.8569 30.6387 34.6982 30.032 34.6982 29.36V23.368H48.1662V20.484C48.1662 20.2973 48.1009 20.1387 47.9702 20.008C47.8395 19.8587 47.6809 19.784 47.4942 19.784H34.6982V16.76H47.5782C48.2502 16.76 48.8569 16.928 49.3982 17.264C49.9582 17.5813 50.3969 18.02 50.7142 18.58C51.0502 19.14 51.2182 19.7467 51.2182 20.4V33H38.3382ZM38.4222 29.976H48.1662V26.196H37.7222V29.276C37.7222 29.4627 37.7875 29.6307 37.9182 29.78C38.0675 29.9107 38.2355 29.976 38.4222 29.976ZM54.1396 33V16.76H57.1636V33H54.1396ZM54.1396 14.464V11.44H57.1636V14.464H54.1396ZM53.4906 39.44V36.388H60.3506C60.5372 36.388 60.6959 36.3227 60.8266 36.192C60.9759 36.0613 61.0506 35.9027 61.0506 35.716V16.76H64.0746V35.8C64.0746 36.472 63.9066 37.0787 63.5706 37.62C63.2532 38.18 62.8146 38.6187 62.2546 38.936C61.7132 39.272 61.1066 39.44 60.4346 39.44H53.4906ZM61.0506 14.464V11.44H64.0746V14.464H61.0506ZM66.8818 33V16.76H69.9058V33H66.8818ZM66.8818 14.464V11.44H69.9058V14.464H66.8818ZM73.1448 33V16.76H86.0248C86.6968 16.76 87.3035 16.928 87.8448 17.264C88.4048 17.6 88.8435 18.0387 89.1608 18.58C89.4968 19.1213 89.6648 19.728 89.6648 20.4V33H86.6408V20.484C86.6408 20.2973 86.5661 20.1387 86.4168 20.008C86.2861 19.8587 86.1275 19.784 85.9408 19.784H76.8688C76.6821 19.784 76.5141 19.8587 76.3648 20.008C76.2341 20.1387 76.1688 20.2973 76.1688 20.484V33H73.1448ZM104.458 33C103.786 33 103.17 32.8413 102.61 32.524C102.069 32.188 101.63 31.7493 101.294 31.208C100.977 30.648 100.818 30.032 100.818 29.36V16.48C100.818 15.808 100.977 15.2013 101.294 14.66C101.63 14.1 102.069 13.6613 102.61 13.344C103.17 13.008 103.786 12.84 104.458 12.84H117.31C117.982 12.84 118.598 13.008 119.158 13.344C119.718 13.6613 120.157 14.1 120.474 14.66C120.81 15.2013 120.978 15.808 120.978 16.48V17.684H117.926V16.564C117.926 16.3773 117.861 16.2187 117.73 16.088C117.599 15.9387 117.441 15.864 117.254 15.864H104.542C104.355 15.864 104.187 15.9387 104.038 16.088C103.907 16.2187 103.842 16.3773 103.842 16.564V29.276C103.842 29.4627 103.907 29.6307 104.038 29.78C104.187 29.9107 104.355 29.976 104.542 29.976H117.254C117.441 29.976 117.599 29.9107 117.73 29.78C117.861 29.6307 117.926 29.4627 117.926 29.276V24.992H113.166V21.94H120.978V29.36C120.978 30.032 120.81 30.648 120.474 31.208C120.157 31.7493 119.718 32.188 119.158 32.524C118.598 32.8413 117.982 33 117.31 33H104.458ZM127.588 33C126.916 33 126.3 32.832 125.74 32.496C125.199 32.16 124.76 31.7213 124.424 31.18C124.107 30.6387 123.948 30.032 123.948 29.36V23.368H137.416V20.484C137.416 20.2973 137.351 20.1387 137.22 20.008C137.09 19.8587 136.931 19.784 136.744 19.784H123.948V16.76H136.828C137.5 16.76 138.107 16.928 138.648 17.264C139.208 17.5813 139.647 18.02 139.964 18.58C140.3 19.14 140.468 19.7467 140.468 20.4V33H127.588ZM127.672 29.976H137.416V26.196H126.972V29.276C126.972 29.4627 127.038 29.6307 127.168 29.78C127.318 29.9107 127.486 29.976 127.672 29.976ZM143.034 33V20.4C143.034 19.728 143.202 19.1213 143.538 18.58C143.874 18.0387 144.313 17.6 144.854 17.264C145.414 16.928 146.021 16.76 146.674 16.76H155.746V19.784H146.758C146.571 19.784 146.403 19.8587 146.254 20.008C146.123 20.1387 146.058 20.2973 146.058 20.484V33H143.034ZM161.33 33C160.658 33 160.042 32.832 159.482 32.496C158.941 32.16 158.502 31.7213 158.166 31.18C157.849 30.6387 157.69 30.032 157.69 29.36V23.368H171.158V20.484C171.158 20.2973 171.093 20.1387 170.962 20.008C170.832 19.8587 170.673 19.784 170.486 19.784H157.69V16.76H170.57C171.242 16.76 171.849 16.928 172.39 17.264C172.95 17.5813 173.389 18.02 173.706 18.58C174.042 19.14 174.21 19.7467 174.21 20.4V33H161.33ZM161.414 29.976H171.158V26.196H160.714V29.276C160.714 29.4627 160.78 29.6307 160.91 29.78C161.06 29.9107 161.228 29.976 161.414 29.976ZM179.57 39.412V36.36H189.51C189.697 36.36 189.856 36.2853 189.986 36.136C190.136 36.0053 190.21 35.8467 190.21 35.66V33H180.354C179.701 33 179.094 32.8413 178.534 32.524C177.974 32.188 177.526 31.74 177.19 31.18C176.873 30.62 176.714 30.0133 176.714 29.36V20.4C176.714 19.728 176.882 19.1213 177.218 18.58C177.554 18.0387 177.993 17.6 178.534 17.264C179.094 16.928 179.701 16.76 180.354 16.76H189.594C190.266 16.76 190.873 16.928 191.414 17.264C191.974 17.6 192.413 18.0387 192.73 18.58C193.066 19.1213 193.234 19.728 193.234 20.4V35.772C193.234 36.444 193.066 37.0507 192.73 37.592C192.413 38.152 191.974 38.5907 191.414 38.908C190.873 39.244 190.266 39.412 189.594 39.412H179.57ZM180.438 29.976H189.51C189.697 29.976 189.856 29.9107 189.986 29.78C190.136 29.6307 190.21 29.4627 190.21 29.276V20.484C190.21 20.2973 190.136 20.1387 189.986 20.008C189.856 19.8587 189.697 19.784 189.51 19.784H180.438C180.252 19.784 180.084 19.8587 179.934 20.008C179.804 20.1387 179.738 20.2973 179.738 20.484V29.276C179.738 29.4627 179.804 29.6307 179.934 29.78C180.084 29.9107 180.252 29.976 180.438 29.976ZM199.256 33C198.584 33 197.977 32.832 197.436 32.496C196.894 32.16 196.456 31.7213 196.12 31.18C195.784 30.6387 195.616 30.032 195.616 29.36V20.4C195.616 19.728 195.784 19.1213 196.12 18.58C196.456 18.0387 196.894 17.6 197.436 17.264C197.977 16.928 198.584 16.76 199.256 16.76H208.496C209.168 16.76 209.774 16.928 210.316 17.264C210.876 17.5813 211.314 18.02 211.632 18.58C211.968 19.14 212.136 19.7467 212.136 20.4V26.392H198.64V29.276C198.64 29.4627 198.705 29.6307 198.836 29.78C198.985 29.9107 199.153 29.976 199.34 29.976H212.136V33H199.256ZM198.64 23.564H209.084V20.484C209.084 20.2973 209.018 20.1387 208.888 20.008C208.757 19.8587 208.598 19.784 208.412 19.784H199.34C199.153 19.784 198.985 19.8587 198.836 20.008C198.705 20.1387 198.64 20.2973 198.64 20.484V23.564Z" fill="white"/>
<path d="M88.08 56H84.44V43.46H88.08C89.36 43.46 90.3733 43.5667 91.12 43.78C91.88 43.9933 92.4867 44.3333 92.94 44.8C93.3933 45.2667 93.72 45.9 93.92 46.7C94.1333 47.4867 94.24 48.4933 94.24 49.72C94.24 51.8933 93.7533 53.4867 92.78 54.5C91.8067 55.5 90.24 56 88.08 56ZM91.66 46.02C91.3533 45.66 90.9267 45.4 90.38 45.24C89.8333 45.08 89.0667 45 88.08 45H86.14V54.4H88.08C89.7333 54.4 90.88 54.0467 91.52 53.34C92.1733 52.6333 92.5 51.4267 92.5 49.72C92.5 48.7733 92.4333 48.0067 92.3 47.42C92.1667 46.8333 91.9533 46.3667 91.66 46.02ZM103.869 54.08V55.46C103.522 55.6467 103.009 55.8133 102.329 55.96C101.662 56.0933 100.982 56.16 100.289 56.16C98.7422 56.16 97.6356 55.76 96.9689 54.96C96.3022 54.16 95.9689 52.84 95.9689 51C95.9689 49.2267 96.3156 47.94 97.0089 47.14C97.7022 46.3267 98.8089 45.92 100.329 45.92C101.742 45.92 102.756 46.24 103.369 46.88C103.982 47.5067 104.289 48.56 104.289 50.04C104.289 50.3067 104.282 50.5533 104.269 50.78C104.256 51.0067 104.229 51.28 104.189 51.6H97.6289C97.6422 52.6933 97.8622 53.4733 98.2889 53.94C98.7289 54.4067 99.4822 54.64 100.549 54.64C101.122 54.64 101.722 54.5867 102.349 54.48C102.976 54.3733 103.482 54.24 103.869 54.08ZM102.789 49.82C102.776 48.94 102.582 48.32 102.209 47.96C101.836 47.5867 101.209 47.4 100.329 47.4C99.3422 47.4 98.6422 47.6133 98.2289 48.04C97.8289 48.4533 97.6289 49.1867 97.6289 50.24H102.769C102.769 50.2133 102.769 50.1533 102.769 50.06C102.782 49.9533 102.789 49.8733 102.789 49.82ZM112.112 54.46V55.84C111.899 55.9333 111.606 56.0067 111.232 56.06C110.872 56.1267 110.526 56.16 110.192 56.16C108.992 56.16 108.132 55.8933 107.612 55.36C107.106 54.8267 106.852 53.9067 106.852 52.6V47.52H105.372V46.12H106.872L107.132 43.72H108.492V46.12H112.012V47.52H108.492V52.54C108.492 53.3533 108.639 53.9067 108.932 54.2C109.239 54.4933 109.772 54.64 110.532 54.64C110.772 54.64 111.046 54.62 111.352 54.58C111.672 54.54 111.926 54.5 112.112 54.46ZM115.974 56.16C114.961 56.16 114.214 55.92 113.734 55.44C113.267 54.9467 113.034 54.1733 113.034 53.12C113.034 52.0533 113.321 51.3 113.894 50.86C114.467 50.4067 115.441 50.18 116.814 50.18C117.267 50.18 117.714 50.2 118.154 50.24C118.594 50.28 119.007 50.34 119.394 50.42V49.46C119.394 48.7267 119.207 48.2 118.834 47.88C118.461 47.56 117.861 47.4 117.034 47.4C116.421 47.4 115.881 47.4267 115.414 47.48C114.947 47.52 114.481 47.5933 114.014 47.7V46.28C114.547 46.1467 115.087 46.0533 115.634 46C116.194 45.9467 116.827 45.92 117.534 45.92C118.721 45.92 119.601 46.2 120.174 46.76C120.747 47.3067 121.034 48.16 121.034 49.32V56H119.534L119.454 55.08H119.414C119.014 55.4 118.494 55.66 117.854 55.86C117.227 56.06 116.601 56.16 115.974 56.16ZM116.994 51.52C116.087 51.52 115.454 51.6333 115.094 51.86C114.747 52.0733 114.574 52.46 114.574 53.02C114.574 53.6067 114.721 54.0333 115.014 54.3C115.307 54.5533 115.787 54.68 116.454 54.68C116.974 54.68 117.507 54.6 118.054 54.44C118.601 54.28 119.047 54.08 119.394 53.84V51.72C118.954 51.6533 118.541 51.6067 118.154 51.58C117.781 51.54 117.394 51.52 116.994 51.52ZM125.297 44.4H123.537V42.7H125.297V44.4ZM125.237 56H123.597V46.12H125.237V56ZM129.515 42.7V56H127.875V42.7H129.515ZM133.852 44.4H132.092V42.7H133.852V44.4ZM133.792 56H132.152V46.12H133.792V56ZM138.069 56H136.429V46.12H137.849L137.929 47.08H137.989C138.523 46.68 139.076 46.3867 139.649 46.2C140.236 46.0133 140.889 45.92 141.609 45.92C142.703 45.92 143.529 46.1933 144.089 46.74C144.663 47.2867 144.949 48.0933 144.949 49.16V56H143.309V49.36C143.309 48.6933 143.123 48.2 142.749 47.88C142.376 47.56 141.803 47.4 141.029 47.4C140.549 47.4 140.056 47.48 139.549 47.64C139.056 47.7867 138.563 48.0067 138.069 48.3V56ZM151.524 59.24C150.857 59.24 150.23 59.1933 149.644 59.1C149.07 59.02 148.597 58.9067 148.224 58.76V57.3C148.53 57.42 148.977 57.52 149.564 57.6C150.164 57.68 150.757 57.72 151.344 57.72C152.344 57.72 153.037 57.52 153.424 57.12C153.81 56.7333 154.004 56.04 154.004 55.04V54.42C153.51 54.7133 152.984 54.94 152.424 55.1C151.864 55.2467 151.297 55.32 150.724 55.32C149.404 55.32 148.457 54.9533 147.884 54.22C147.324 53.4867 147.044 52.2867 147.044 50.62C147.044 48.9267 147.404 47.72 148.124 47C148.857 46.28 150.097 45.92 151.844 45.92C152.47 45.92 153.144 45.96 153.864 46.04C154.584 46.1067 155.177 46.1933 155.644 46.3V54.58C155.644 56.3133 155.337 57.52 154.724 58.2C154.11 58.8933 153.044 59.24 151.524 59.24ZM151.844 47.4C150.564 47.4 149.717 47.62 149.304 48.06C148.89 48.5 148.684 49.3533 148.684 50.62C148.684 51.82 148.857 52.6533 149.204 53.12C149.564 53.5733 150.25 53.8 151.264 53.8C151.704 53.8 152.157 53.74 152.624 53.62C153.104 53.4867 153.564 53.3067 154.004 53.08V47.62C153.684 47.5533 153.337 47.5 152.964 47.46C152.604 47.42 152.23 47.4 151.844 47.4ZM165.083 47.4C164.23 47.4 163.637 47.5 163.303 47.7C162.983 47.9 162.823 48.3067 162.823 48.92C162.823 49.24 162.897 49.4867 163.043 49.66C163.203 49.82 163.45 49.9267 163.783 49.98L166.323 50.36C167.123 50.48 167.683 50.7333 168.003 51.12C168.323 51.4933 168.483 52.0867 168.483 52.9C168.483 54.0467 168.21 54.88 167.663 55.4C167.117 55.9067 166.21 56.16 164.943 56.16C164.183 56.16 163.477 56.12 162.823 56.04C162.17 55.96 161.63 55.8533 161.203 55.72V54.18C161.63 54.3133 162.15 54.4267 162.763 54.52C163.39 54.6 164.03 54.64 164.683 54.64C165.51 54.64 166.077 54.52 166.383 54.28C166.69 54.04 166.843 53.6133 166.843 53C166.843 52.6133 166.757 52.3333 166.583 52.16C166.41 51.9733 166.097 51.8467 165.643 51.78L163.103 51.4C162.463 51.3067 161.983 51.06 161.663 50.66C161.357 50.26 161.197 49.68 161.183 48.92C161.183 47.88 161.49 47.12 162.103 46.64C162.73 46.16 163.69 45.92 164.983 45.92C165.517 45.92 165.997 45.9333 166.423 45.96C166.863 45.9867 167.323 46.04 167.803 46.12V47.58C167.457 47.5267 167.05 47.4867 166.583 47.46C166.117 47.42 165.617 47.4 165.083 47.4ZM176.175 54.46V55.84C175.961 55.9333 175.668 56.0067 175.295 56.06C174.935 56.1267 174.588 56.16 174.255 56.16C173.055 56.16 172.195 55.8933 171.675 55.36C171.168 54.8267 170.915 53.9067 170.915 52.6V47.52H169.435V46.12H170.935L171.195 43.72H172.555V46.12H176.075V47.52H172.555V52.54C172.555 53.3533 172.701 53.9067 172.995 54.2C173.301 54.4933 173.835 54.64 174.595 54.64C174.835 54.64 175.108 54.62 175.415 54.58C175.735 54.54 175.988 54.5 176.175 54.46ZM180.997 56.16C179.903 56.16 179.083 55.8867 178.537 55.34C177.99 54.7933 177.717 53.9733 177.717 52.88V46.12H179.357V52.68C179.357 53.36 179.53 53.8533 179.877 54.16C180.223 54.4667 180.77 54.62 181.517 54.62C181.97 54.62 182.423 54.5667 182.877 54.46C183.343 54.34 183.81 54.16 184.277 53.92V46.12H185.917V56H184.417L184.337 55.18H184.297C183.603 55.54 183.003 55.7933 182.497 55.94C181.99 56.0867 181.49 56.16 180.997 56.16ZM195.098 42.7H196.738V56H195.318L195.198 55.08H195.158C194.772 55.44 194.298 55.7133 193.738 55.9C193.192 56.0733 192.558 56.16 191.838 56.16C190.492 56.16 189.525 55.76 188.938 54.96C188.365 54.16 188.078 52.8533 188.078 51.04C188.078 49.2267 188.432 47.92 189.138 47.12C189.845 46.32 191.025 45.92 192.678 45.92C193.145 45.92 193.578 45.96 193.978 46.04C194.392 46.1067 194.765 46.2067 195.098 46.34V42.7ZM192.878 47.4C191.638 47.4 190.798 47.66 190.358 48.18C189.932 48.7 189.718 49.6533 189.718 51.04C189.718 52.3867 189.905 53.3267 190.278 53.86C190.665 54.38 191.378 54.64 192.418 54.64C192.912 54.64 193.385 54.58 193.838 54.46C194.292 54.3267 194.712 54.1333 195.098 53.88V47.8C194.778 47.6667 194.438 47.5667 194.078 47.5C193.718 47.4333 193.318 47.4 192.878 47.4ZM201.079 44.4H199.319V42.7H201.079V44.4ZM201.019 56H199.379V46.12H201.019V56ZM212.336 51.04C212.336 52.9067 211.989 54.2267 211.296 55C210.616 55.7733 209.443 56.16 207.776 56.16C206.056 56.16 204.863 55.7867 204.196 55.04C203.529 54.2933 203.196 52.96 203.196 51.04C203.196 49.16 203.536 47.84 204.216 47.08C204.909 46.3067 206.096 45.92 207.776 45.92C209.496 45.92 210.683 46.2933 211.336 47.04C212.003 47.7867 212.336 49.12 212.336 51.04ZM204.836 51.02C204.836 52.4867 205.029 53.46 205.416 53.94C205.803 54.4067 206.589 54.64 207.776 54.64C208.923 54.64 209.696 54.3933 210.096 53.9C210.496 53.3933 210.696 52.4333 210.696 51.02C210.696 49.5533 210.503 48.5867 210.116 48.12C209.743 47.64 208.963 47.4 207.776 47.4C206.616 47.4 205.836 47.6467 205.436 48.14C205.036 48.6333 204.836 49.5933 204.836 51.02Z" fill="#DDDDDD"/>
<path d="M2 22C2 20.08 2 7.86667 2 2H22" stroke="#0036F3" stroke-width="3" stroke-linecap="round"/>
</svg>
