<svg width="69" height="45" viewBox="0 0 69 45" fill="none" xmlns="http://www.w3.org/2000/svg">
<rect width="69" height="45" fill="#F5F5F5"/>
<path d="M-28 -135H402V85H-28V-135Z" fill="black"/>
<path d="M15.208 33C14.536 33 13.92 32.8413 13.36 32.524C12.8187 32.188 12.38 31.7493 12.044 31.208C11.7267 30.648 11.568 30.032 11.568 29.36V16.48C11.568 15.808 11.7267 15.2013 12.044 14.66C12.38 14.1 12.8187 13.6613 13.36 13.344C13.92 13.008 14.536 12.84 15.208 12.84H28.06C28.732 12.84 29.348 13.008 29.908 13.344C30.468 13.6613 30.9067 14.1 31.224 14.66C31.56 15.2013 31.728 15.808 31.728 16.48V17.684H28.676V16.564C28.676 16.3773 28.6107 16.2187 28.48 16.088C28.3493 15.9387 28.1907 15.864 28.004 15.864H15.292C15.1053 15.864 14.9373 15.9387 14.788 16.088C14.6573 16.2187 14.592 16.3773 14.592 16.564V29.276C14.592 29.4627 14.6573 29.6307 14.788 29.78C14.9373 29.9107 15.1053 29.976 15.292 29.976H28.004C28.1907 29.976 28.3493 29.9107 28.48 29.78C28.6107 29.6307 28.676 29.4627 28.676 29.276V24.992H23.916V21.94H31.728V29.36C31.728 30.032 31.56 30.648 31.224 31.208C30.9067 31.7493 30.468 32.188 29.908 32.524C29.348 32.8413 28.732 33 28.06 33H15.208Z" fill="white"/>
<path d="M40.208 33C39.536 33 38.92 32.8413 38.36 32.524C37.8187 32.188 37.38 31.7493 37.044 31.208C36.7267 30.648 36.568 30.032 36.568 29.36V16.48C36.568 15.808 36.7267 15.2013 37.044 14.66C37.38 14.1 37.8187 13.6613 38.36 13.344C38.92 13.008 39.536 12.84 40.208 12.84H53.06C53.732 12.84 54.348 13.008 54.908 13.344C55.468 13.6613 55.9067 14.1 56.224 14.66C56.56 15.2013 56.728 15.808 56.728 16.48V17.684H53.676V16.564C53.676 16.3773 53.6107 16.2187 53.48 16.088C53.3493 15.9387 53.1907 15.864 53.004 15.864H40.292C40.1053 15.864 39.9373 15.9387 39.788 16.088C39.6573 16.2187 39.592 16.3773 39.592 16.564V29.276C39.592 29.4627 39.6573 29.6307 39.788 29.78C39.9373 29.9107 40.1053 29.976 40.292 29.976H53.004C53.1907 29.976 53.3493 29.9107 53.48 29.78C53.6107 29.6307 53.676 29.4627 53.676 29.276V24.992H48.916V21.94H56.728V29.36C56.728 30.032 56.56 30.648 56.224 31.208C55.9067 31.7493 55.468 32.188 54.908 32.524C54.348 32.8413 53.732 33 53.06 33H40.208Z" fill="white"/>
<path d="M2 22C2 20.08 2 7.86667 2 2H22" stroke="#0036F3" stroke-width="3" stroke-linecap="round"/>
<path d="M67 23C67 24.92 67 37.1333 67 43L47 43" stroke="#0036F3" stroke-width="3" stroke-linecap="round"/>
</svg>
